<svg width="94" height="19" viewBox="0 0 94 19" fill="none" xmlns="http://www.w3.org/2000/svg">
<path d="M0.864 3.6V0.503999H6.648V18H3.192V3.6H0.864ZM11.8393 18.168C11.2313 18.168 10.7273 17.984 10.3273 17.616C9.94331 17.232 9.75131 16.76 9.75131 16.2C9.75131 15.64 9.94331 15.176 10.3273 14.808C10.7273 14.424 11.2313 14.232 11.8393 14.232C12.4313 14.232 12.9193 14.424 13.3033 14.808C13.6873 15.176 13.8793 15.64 13.8793 16.2C13.8793 16.76 13.6873 17.232 13.3033 17.616C12.9193 17.984 12.4313 18.168 11.8393 18.168ZM16.2017 9.024C16.2017 6.256 16.6977 4.088 17.6897 2.52C18.6977 0.951999 20.3617 0.167999 22.6817 0.167999C25.0017 0.167999 26.6577 0.951999 27.6497 2.52C28.6577 4.088 29.1617 6.256 29.1617 9.024C29.1617 11.808 28.6577 13.992 27.6497 15.576C26.6577 17.16 25.0017 17.952 22.6817 17.952C20.3617 17.952 18.6977 17.16 17.6897 15.576C16.6977 13.992 16.2017 11.808 16.2017 9.024ZM25.8497 9.024C25.8497 7.84 25.7697 6.848 25.6097 6.048C25.4657 5.232 25.1617 4.568 24.6977 4.056C24.2497 3.544 23.5777 3.288 22.6817 3.288C21.7857 3.288 21.1057 3.544 20.6417 4.056C20.1937 4.568 19.8897 5.232 19.7297 6.048C19.5857 6.848 19.5137 7.84 19.5137 9.024C19.5137 10.24 19.5857 11.264 19.7297 12.096C19.8737 12.912 20.1777 13.576 20.6417 14.088C21.1057 14.584 21.7857 14.832 22.6817 14.832C23.5777 14.832 24.2577 14.584 24.7217 14.088C25.1857 13.576 25.4897 12.912 25.6337 12.096C25.7777 11.264 25.8497 10.24 25.8497 9.024ZM31.7173 9.024C31.7173 6.256 32.2133 4.088 33.2053 2.52C34.2133 0.951999 35.8773 0.167999 38.1973 0.167999C40.5173 0.167999 42.1733 0.951999 43.1653 2.52C44.1733 4.088 44.6773 6.256 44.6773 9.024C44.6773 11.808 44.1733 13.992 43.1653 15.576C42.1733 17.16 40.5173 17.952 38.1973 17.952C35.8773 17.952 34.2133 17.16 33.2053 15.576C32.2133 13.992 31.7173 11.808 31.7173 9.024ZM41.3653 9.024C41.3653 7.84 41.2853 6.848 41.1253 6.048C40.9813 5.232 40.6773 4.568 40.2133 4.056C39.7653 3.544 39.0933 3.288 38.1973 3.288C37.3013 3.288 36.6213 3.544 36.1573 4.056C35.7093 4.568 35.4053 5.232 35.2453 6.048C35.1013 6.848 35.0293 7.84 35.0293 9.024C35.0293 10.24 35.1013 11.264 35.2453 12.096C35.3893 12.912 35.6933 13.576 36.1573 14.088C36.6213 14.584 37.3013 14.832 38.1973 14.832C39.0933 14.832 39.7733 14.584 40.2373 14.088C40.7013 13.576 41.0053 12.912 41.1493 12.096C41.2933 11.264 41.3653 10.24 41.3653 9.024ZM56.6957 3.96V8.16H62.3357V10.824H56.6957V15.264H63.0557V18H53.3357V1.224H63.0557V3.96H56.6957ZM77.5091 1.248V3.96H73.0451V18H69.6851V3.96H65.2211V1.248H77.5091ZM93.8567 1.248V18H90.4967V10.872H83.3207V18H79.9607V1.248H83.3207V8.136H90.4967V1.248H93.8567Z" fill="#2E2F38"/>
</svg>
