<svg width="40" height="40" viewBox="0 0 40 40" fill="none" xmlns="http://www.w3.org/2000/svg">
<path d="M8.74983 19.3548C8.74983 19.0126 8.88152 18.6844 9.11594 18.4424C9.35036 18.2004 9.6683 18.0645 9.99983 18.0645L26.9873 18.0645L25.3623 16.4C25.1269 16.157 24.9947 15.8274 24.9947 15.4838C24.9947 15.1402 25.1269 14.8107 25.3623 14.5677C25.5977 14.3247 25.9169 14.1882 26.2498 14.1882C26.5827 14.1882 26.9019 14.3247 27.1373 14.5677L30.8873 18.4387C31.0608 18.6201 31.1783 18.8505 31.225 19.1008C31.2717 19.3512 31.2455 19.6101 31.1498 19.8451C31.0561 20.0808 30.8968 20.2825 30.6922 20.4248C30.4875 20.5672 30.2466 20.6439 29.9998 20.6451L9.99983 20.6451C9.6683 20.6451 9.35036 20.5092 9.11594 20.2672C8.88152 20.0252 8.74983 19.697 8.74983 19.3548Z" fill="#2E2F38"/>
<path d="M25.0003 23.2258C24.9993 23.056 25.0308 22.8876 25.093 22.7304C25.1552 22.5732 25.2469 22.4302 25.3628 22.3096L29.1128 18.4387C29.3481 18.1957 29.6674 18.0592 30.0003 18.0592C30.1651 18.0592 30.3283 18.0927 30.4806 18.1578C30.6328 18.2229 30.7712 18.3184 30.8878 18.4387C31.0043 18.559 31.0968 18.7018 31.1598 18.859C31.2229 19.0162 31.2554 19.1847 31.2554 19.3548C31.2554 19.6984 31.1231 20.028 30.8878 20.2709L27.1378 24.1419C27.0216 24.2628 26.8833 24.3588 26.731 24.4243C26.5787 24.4899 26.4153 24.5236 26.2503 24.5236C26.0852 24.5236 25.9219 24.4899 25.7695 24.4243C25.6172 24.3588 25.479 24.2628 25.3628 24.1419C25.2469 24.0213 25.1552 23.8783 25.093 23.7211C25.0308 23.5639 24.9993 23.3956 25.0003 23.2258Z" fill="#2E2F38"/>
</svg>
