<svg width="224" height="932" viewBox="0 0 224 932" fill="none" xmlns="http://www.w3.org/2000/svg">
<path opacity="0.05" d="M3.99999 223.032L3.99999 144.696L16.672 144.696L26.176 168.312L77.152 147.864L77.152 72.984L26.176 52.536L16.672 75.576L4 75.576L4 0.119987L16.672 0.119988L26.176 23.736L207.328 94.584L207.328 124.248L26.176 197.976L16.672 223.032L3.99999 223.032ZM96.736 140.376L177.664 109.848L96.736 80.472L96.736 140.376ZM3.99999 305.146L3.99999 229.402L16.384 229.402L25.888 253.594L128.704 253.594L128.704 229.402L145.984 229.402C149.632 236.89 151.456 245.338 151.456 254.746C151.456 264.154 149.44 270.682 145.408 274.33C141.376 277.978 135.424 279.994 127.552 280.378C133.312 282.298 138.496 286.234 143.104 292.186C148.672 299.29 151.456 308.698 151.456 320.41C151.456 325.594 150.784 330.49 149.44 335.098C148.096 339.898 146.752 343.354 145.408 345.466L143.392 348.922L109.408 348.922L109.408 331.642L126.688 327.898C127.84 326.746 128.416 323.578 128.416 318.394C128.416 313.21 127.648 308.218 126.112 303.418C124.768 298.618 123.04 294.874 120.928 292.186C116.32 286.81 111.616 282.97 106.816 280.666L25.888 280.666L16.384 305.146L3.99999 305.146ZM67.072 408.7C50.56 408.7 39.328 411.196 33.376 416.188C27.424 421.18 24.448 428.764 24.448 438.94C24.448 449.116 25.984 457.468 29.056 463.996L14.656 469.756C13.696 468.988 12.448 467.836 10.912 466.3C9.37598 464.956 7.26398 461.404 4.57598 455.644C2.07998 449.884 0.83198 443.548 0.831981 436.636C0.831982 419.164 5.72798 405.628 15.52 396.028C25.504 386.428 40 381.628 59.008 381.628L125.248 381.628L125.248 366.364L142.24 366.364L169.888 394.012L169.888 408.7L148 408.7L148 457.084L125.248 457.084L125.248 408.7L67.072 408.7ZM3.99997 608.342L3.99998 485.942L23.584 485.942L124.672 574.07L124.672 510.422L107.968 504.95L107.968 488.534L147.424 488.534L147.424 604.31L124.672 604.31L27.616 520.502L27.616 587.894L44.896 593.366L44.896 608.342L3.99997 608.342ZM3.99997 710.159L3.99997 634.415L16.384 634.415L25.888 658.607L128.704 658.607L128.704 634.415L145.984 634.415C149.632 641.903 151.456 650.543 151.456 660.335C151.456 670.319 149.056 677.039 144.256 680.495C139.648 683.951 132.544 685.679 122.944 685.679L25.888 685.679L16.384 710.159L3.99997 710.159ZM184.576 686.831C180.16 682.415 177.952 677.039 177.952 670.703C177.952 664.367 180.16 658.991 184.576 654.575C188.992 650.159 194.368 647.951 200.704 647.951C207.04 647.951 212.416 650.159 216.832 654.575C221.248 658.991 223.456 664.367 223.456 670.703C223.456 677.039 221.248 682.415 216.832 686.831C212.416 691.247 207.04 693.455 200.704 693.455C194.368 693.455 188.992 691.247 184.576 686.831ZM1.11996 804.344C1.11997 782.648 7.26397 764.984 19.552 751.352C32.032 737.912 50.176 731.192 73.984 731.192C97.792 731.192 116.608 738.104 130.432 751.928C144.448 765.752 151.456 781.88 151.456 800.312C151.456 844.088 125.536 865.976 73.696 865.976L73.696 759.128L72.256 759.128C58.624 759.128 47.104 763.928 37.696 773.528C28.288 783.128 23.584 796.184 23.584 812.696C23.584 819.8 24.352 826.52 25.888 832.856C27.616 839.192 29.344 843.8 31.072 846.68L33.376 850.712L18.4 859.064C18.016 858.488 17.344 857.624 16.384 856.472C15.616 855.512 14.272 853.304 12.352 849.848C10.432 846.392 8.70396 842.648 7.16796 838.616C3.13596 828.44 1.11996 817.016 1.11996 804.344ZM92.128 839.192C104.032 838.232 113.056 834.296 119.2 827.384C125.536 820.664 128.704 811.832 128.704 800.888C128.704 790.136 125.632 781.208 119.488 774.104C113.536 767 104.416 762.392 92.128 760.28L92.128 839.192ZM5.72796 926.942C2.46396 923.678 0.83196 919.646 0.83196 914.846C0.83196 910.046 2.46396 906.014 5.72796 902.75C8.99196 899.486 13.024 897.854 17.824 897.854C22.624 897.854 26.656 899.486 29.92 902.75C33.184 906.014 34.816 910.046 34.816 914.846C34.816 919.646 33.184 923.678 29.92 926.942C26.656 930.206 22.624 931.838 17.824 931.838C13.024 931.838 8.99196 930.206 5.72796 926.942Z" fill="white"/>
</svg>
